<?xml version="1.0" encoding="UTF-8"?>
<svg id="Calque_1" xmlns="http://www.w3.org/2000/svg" version="1.1" viewBox="0 0 400 84">
  <!-- Generator: Adobe Illustrator 29.8.1, SVG Export Plug-In . SVG Version: 2.1.1 Build 2)  -->
  <defs>
    <style>
      .st0 {
        fill: #4cbebc;
      }

      .st1, .st2 {
        fill: #2f2d2e;
      }

      .st2 {
        stroke: #2f2d2e;
        stroke-miterlimit: 10;
        stroke-width: 2px;
      }

      .st3 {
        fill: #fff;
      }
    </style>
  </defs>
  <path class="st1" d="M99,40l.9-1.5c.6.5,1.2.9,1.8,1.2s1.3.6,1.9.7,1.3.2,2,.2c1,0,2-.2,2.7-.5.8-.4,1.4-.9,1.8-1.5.4-.6.7-1.4.7-2.2s-.2-1.6-.7-2.2c-.5-.6-1.1-1.1-1.9-1.5-.8-.4-1.6-.8-2.4-1.1-.7-.3-1.4-.6-2-.9-.7-.3-1.3-.7-1.8-1.1-.6-.4-1-1-1.3-1.6-.3-.6-.5-1.3-.5-2.2s.3-2.1.8-2.9c.5-.8,1.3-1.5,2.3-1.9,1-.5,2.1-.7,3.4-.7s1.7.1,2.6.3c.8.2,1.7.5,2.4,1l-.8,1.6c-.7-.4-1.4-.7-2.1-.9-.7-.2-1.4-.3-2.1-.3s-1.7.2-2.4.5c-.7.3-1.2.7-1.6,1.3s-.6,1.2-.6,1.9.2,1.5.7,2c.5.5,1.1,1,1.8,1.4s1.5.8,2.3,1.1c.7.3,1.4.6,2.2,1,.7.4,1.3.8,1.9,1.2.6.5,1,1,1.4,1.7.3.7.5,1.4.5,2.4s-.3,2.2-.9,3.1-1.4,1.6-2.5,2.1c-1.1.5-2.3.8-3.7.8s-2.4-.2-3.5-.6c-1.1-.4-2.2-1-3.2-1.8Z"/>
  <g>
    <circle class="st1" cx="41.9" cy="42" r="38.5"/>
    <g>
      <path class="st0" d="M64.3,49.9c-1,1-2.1,1.8-3.5,2.3-1.4.6-2.8.8-4.4.8s-3.1-.3-4.4-.8c-1.3-.5-2.5-1.3-3.5-2.3-1-1-1.8-2.2-2.3-3.5-.5-1.4-.8-2.8-.8-4.4s.3-3.1.8-4.4c.5-1.4,1.3-2.5,2.3-3.5,1-1,2.2-1.8,3.5-2.3,1.3-.5,2.8-.8,4.4-.8s3.1.3,4.4.8c1.4.6,2.5,1.3,3.5,2.3l-1.3,1.3c-.8-.9-1.8-1.6-2.9-2.1s-2.4-.7-3.7-.7-2.5.2-3.6.7c-1.1.5-2.1,1.1-2.9,2-.8.8-1.4,1.8-1.9,3-.5,1.1-.7,2.4-.7,3.7s.2,2.6.7,3.7c.5,1.1,1.1,2.1,1.9,3,.8.8,1.8,1.5,2.9,2s2.3.7,3.6.7,2.6-.2,3.7-.7,2.1-1.2,2.9-2.1l1.3,1.3Z"/>
      <g>
        <line class="st3" x1="39.7" y1="21.2" x2="39.7" y2="62.8"/>
        <rect class="st3" x="39.4" y="21.2" width=".6" height="41.5"/>
      </g>
      <path class="st3" d="M19.5,50.7l.9-1.5c.6.5,1.2.9,1.8,1.2s1.3.6,1.9.7,1.3.2,2,.2c1,0,2-.2,2.7-.5.8-.4,1.4-.9,1.8-1.5.4-.6.7-1.4.7-2.2s-.2-1.6-.7-2.2c-.5-.6-1.1-1.1-1.9-1.5-.8-.4-1.6-.8-2.4-1.1-.7-.3-1.4-.6-2-.9-.7-.3-1.3-.7-1.8-1.1-.6-.4-1-1-1.3-1.6-.3-.6-.5-1.3-.5-2.2s.3-2.1.8-2.9c.5-.8,1.3-1.5,2.3-1.9,1-.5,2.1-.7,3.4-.7s1.7.1,2.6.3c.8.2,1.7.5,2.4,1l-.8,1.6c-.7-.4-1.4-.7-2.1-.9-.7-.2-1.4-.3-2.1-.3s-1.7.2-2.4.5c-.7.3-1.2.7-1.6,1.3s-.6,1.2-.6,1.9.2,1.5.7,2c.5.5,1.1,1,1.8,1.4s1.5.8,2.3,1.1c.7.3,1.4.6,2.2,1,.7.4,1.3.8,1.9,1.2s1,1,1.4,1.7c.3.7.5,1.4.5,2.4s-.3,2.2-.9,3.1-1.4,1.6-2.5,2.1c-1.1.5-2.3.8-3.7.8s-2.4-.2-3.5-.6c-1.1-.4-2.2-1-3.2-1.8Z"/>
    </g>
  </g>
  <g>
    <path class="st1" d="M127.2,42.2c-1.2,0-2.3-.3-3.2-.8s-1.7-1.3-2.3-2.3c-.6-1-.8-2.1-.8-3.3s.3-2.3.8-3.3c.6-.9,1.3-1.7,2.3-2.2.9-.5,2-.8,3.2-.8s2.3.3,3.3.8c1,.5,1.7,1.3,2.3,2.2.5.9.8,2,.8,3.3s-.3,2.3-.8,3.3-1.3,1.7-2.3,2.3c-1,.5-2.1.8-3.3.8ZM127.2,40.7c.9,0,1.7-.2,2.4-.6.7-.4,1.2-1,1.6-1.7s.6-1.6.6-2.5-.2-1.8-.6-2.6c-.4-.7-1-1.3-1.6-1.7-.7-.4-1.5-.6-2.4-.6s-1.7.2-2.4.6c-.7.4-1.2,1-1.7,1.7-.4.7-.6,1.6-.6,2.6s.2,1.8.6,2.5c.4.7,1,1.3,1.6,1.7.7.4,1.5.6,2.4.6Z"/>
    <path class="st1" d="M146.8,42.2c-1.2,0-2.3-.3-3.3-.8s-1.7-1.3-2.3-2.3c-.6-1-.8-2.1-.8-3.3s.3-2.3.8-3.3c.6-.9,1.3-1.7,2.3-2.2,1-.5,2.1-.8,3.3-.8s2,.2,2.9.6c.9.4,1.5,1,2,1.8l-1.3.9c-.4-.6-1-1.1-1.6-1.4-.6-.3-1.3-.5-2.1-.5s-1.7.2-2.4.6c-.7.4-1.3,1-1.7,1.7-.4.7-.6,1.6-.6,2.6s.2,1.8.6,2.6c.4.7,1,1.3,1.7,1.7s1.5.6,2.4.6,1.4-.2,2.1-.5c.6-.3,1.2-.8,1.6-1.4l1.3.9c-.5.8-1.2,1.4-2,1.8-.9.4-1.8.6-2.9.6Z"/>
    <path class="st1" d="M160.2,26.9c-.3,0-.6-.1-.9-.4-.2-.2-.4-.5-.4-.9s.1-.6.4-.8.5-.3.9-.3.6.1.9.3.4.5.4.8-.1.6-.3.9c-.2.2-.5.4-.9.4ZM159.3,42.1v-12.4h1.7v12.4h-1.7Z"/>
    <path class="st1" d="M175.6,42.2c-1.3,0-2.4-.3-3.4-.8-1-.5-1.7-1.3-2.3-2.3-.6-1-.8-2.1-.8-3.3s.3-2.3.8-3.3,1.3-1.7,2.2-2.2c.9-.5,2-.8,3.1-.8s2.2.3,3.1.8c.9.5,1.6,1.3,2.1,2.2.5,1,.8,2.1.8,3.3s0,.2,0,.2c0,0,0,.2,0,.3h-10.8v-1.3h9.9l-.7.5c0-.9-.2-1.7-.6-2.4-.4-.7-.9-1.3-1.6-1.6-.7-.4-1.4-.6-2.3-.6s-1.6.2-2.3.6c-.7.4-1.2.9-1.6,1.7-.4.7-.6,1.5-.6,2.4v.3c0,.9.2,1.8.6,2.5.4.7,1,1.3,1.8,1.7s1.6.6,2.6.6,1.5-.1,2.1-.4c.7-.3,1.2-.7,1.7-1.2l.9,1.1c-.6.7-1.2,1.2-2.1,1.5-.8.3-1.7.5-2.7.5Z"/>
    <path class="st1" d="M187.2,31.1v-1.4h7.7v1.4h-7.7ZM193.1,42.2c-1.2,0-2.1-.3-2.7-.9-.6-.6-.9-1.5-.9-2.7v-11.7h1.7v11.6c0,.7.2,1.3.6,1.7.4.4.9.6,1.6.6s1.4-.2,1.8-.6l.6,1.2c-.3.3-.7.5-1.2.7-.5.1-.9.2-1.4.2Z"/>
    <path class="st1" d="M208.2,42.2c-1.3,0-2.4-.3-3.4-.8-1-.5-1.7-1.3-2.3-2.3-.6-1-.8-2.1-.8-3.3s.3-2.3.8-3.3,1.3-1.7,2.2-2.2c.9-.5,2-.8,3.1-.8s2.2.3,3.1.8c.9.5,1.6,1.3,2.1,2.2.5,1,.8,2.1.8,3.3s0,.2,0,.2c0,0,0,.2,0,.3h-10.8v-1.3h9.9l-.7.5c0-.9-.2-1.7-.6-2.4-.4-.7-.9-1.3-1.6-1.6-.7-.4-1.4-.6-2.3-.6s-1.6.2-2.3.6c-.7.4-1.2.9-1.6,1.7-.4.7-.6,1.5-.6,2.4v.3c0,.9.2,1.8.6,2.5.4.7,1,1.3,1.8,1.7s1.6.6,2.6.6,1.5-.1,2.1-.4c.7-.3,1.2-.7,1.7-1.2l.9,1.1c-.6.7-1.2,1.2-2.1,1.5-.8.3-1.7.5-2.7.5Z"/>
  </g>
  <g>
    <path class="st0" d="M282.4,42.1c-1.2,0-2.3-.3-3.2-.8s-1.7-1.3-2.3-2.3c-.6-1-.8-2.1-.8-3.3s.3-2.3.8-3.3c.6-.9,1.3-1.7,2.3-2.2.9-.5,2-.8,3.2-.8s2.3.3,3.3.8,1.7,1.3,2.3,2.2c.5.9.8,2,.8,3.3s-.3,2.3-.8,3.3-1.3,1.7-2.3,2.3c-1,.5-2.1.8-3.3.8ZM282.4,40.6c.9,0,1.7-.2,2.4-.6.7-.4,1.2-1,1.6-1.7s.6-1.6.6-2.5-.2-1.8-.6-2.6c-.4-.7-1-1.3-1.6-1.7-.7-.4-1.5-.6-2.4-.6s-1.7.2-2.4.6c-.7.4-1.2,1-1.7,1.7-.4.7-.6,1.6-.6,2.6s.2,1.8.6,2.5c.4.7,1,1.3,1.6,1.7s1.5.6,2.4.6Z"/>
    <path class="st0" d="M301.9,42.1c-1.1,0-2-.2-2.8-.6-.8-.4-1.4-1-1.8-1.8-.4-.8-.7-1.8-.7-3v-7.2h1.7v7c0,1.3.3,2.3,1,3s1.6,1,2.8,1,1.6-.2,2.3-.5c.6-.4,1.1-.9,1.5-1.6.3-.7.5-1.5.5-2.4v-6.5h1.7v12.4h-1.6v-3.4l.3.6c-.4.9-1,1.6-1.8,2.1-.8.5-1.8.8-2.9.8Z"/>
    <path class="st0" d="M317.2,42v-12.4h1.6v3.4l-.2-.6c.3-.9.9-1.7,1.8-2.2.8-.5,1.8-.7,3.1-.7v1.6c0,0-.1,0-.2,0,0,0-.1,0-.2,0-1.3,0-2.3.4-3.1,1.2-.7.8-1.1,1.9-1.1,3.4v6.4h-1.7Z"/>
    <path class="st0" d="M329.7,31v-1.4h7.7v1.4h-7.7ZM335.6,42.1c-1.2,0-2.1-.3-2.7-.9-.6-.6-.9-1.5-.9-2.7v-11.7h1.7v11.6c0,.7.2,1.3.6,1.7.4.4.9.6,1.6.6s1.4-.2,1.8-.6l.6,1.2c-.3.3-.7.5-1.2.7-.5.1-.9.2-1.4.2Z"/>
    <path class="st0" d="M349.4,42.1c-.9,0-1.7-.2-2.4-.5-.7-.3-1.2-.7-1.6-1.3s-.5-1.2-.5-1.9.2-1.2.5-1.8c.3-.5.8-1,1.5-1.3.7-.3,1.6-.5,2.8-.5h4.3v1.3h-4.2c-1.2,0-2,.2-2.5.6-.5.4-.7,1-.7,1.6s.3,1.3.8,1.7c.6.4,1.3.6,2.3.6s1.8-.2,2.5-.7,1.2-1.1,1.5-1.9l.4,1.2c-.3.8-.9,1.5-1.6,2-.8.5-1.8.7-3,.7ZM353.7,42v-3.2c0,0,0-4.6,0-4.6,0-1.1-.3-1.9-.9-2.4-.6-.6-1.5-.9-2.6-.9s-1.6.1-2.3.4c-.7.3-1.3.6-1.8,1.1l-.8-1.3c.6-.5,1.4-1,2.3-1.2s1.8-.4,2.8-.4c1.6,0,2.9.4,3.7,1.2.9.8,1.3,2,1.3,3.6v7.7h-1.6Z"/>
    <path class="st0" d="M369.4,41.5c-1.2,0-2.3-.3-3.2-.8-.9-.5-1.7-1.2-2.2-2.1-.5-.9-.8-2-.8-3.2s.3-2.2.8-3.1,1.3-1.6,2.2-2.1,2-.8,3.2-.8,2.1.2,3,.7c.9.5,1.6,1.1,2.1,2,.5.9.8,2,.8,3.3s-.3,2.4-.8,3.3c-.5.9-1.2,1.6-2.1,2.1-.9.5-1.9.7-3,.7ZM369.7,46.7c-1.1,0-2.2-.2-3.3-.5-1-.3-1.9-.8-2.5-1.4l.9-1.3c.6.5,1.3.9,2.2,1.2.9.3,1.8.5,2.7.5,1.6,0,2.7-.4,3.5-1.1.7-.7,1.1-1.9,1.1-3.4v-3.1l.2-2.1-.2-2.1v-3.8h1.6v10.9c0,2.1-.5,3.7-1.6,4.7-1.1,1-2.6,1.5-4.7,1.5ZM369.6,40c.9,0,1.7-.2,2.4-.6.7-.4,1.3-.9,1.7-1.6.4-.7.6-1.5.6-2.4s-.2-1.7-.6-2.4c-.4-.7-1-1.2-1.7-1.6-.7-.4-1.5-.6-2.4-.6s-1.7.2-2.4.6c-.7.4-1.3.9-1.7,1.6-.4.7-.6,1.5-.6,2.4s.2,1.7.6,2.4,1,1.2,1.7,1.6c.7.4,1.5.6,2.4.6Z"/>
    <path class="st0" d="M390.5,42.1c-1.3,0-2.4-.3-3.4-.8-1-.5-1.7-1.3-2.3-2.3-.6-1-.8-2.1-.8-3.3s.3-2.3.8-3.3c.5-.9,1.3-1.7,2.2-2.2s2-.8,3.1-.8,2.2.3,3.1.8c.9.5,1.6,1.3,2.1,2.2.5,1,.8,2.1.8,3.3s0,.2,0,.2,0,.2,0,.3h-10.8v-1.3h9.9l-.7.5c0-.9-.2-1.7-.6-2.4-.4-.7-.9-1.3-1.6-1.6-.7-.4-1.4-.6-2.3-.6s-1.6.2-2.3.6c-.7.4-1.2.9-1.6,1.7-.4.7-.6,1.5-.6,2.4v.3c0,.9.2,1.8.6,2.5.4.7,1,1.3,1.8,1.7.8.4,1.6.6,2.6.6s1.5-.1,2.1-.4c.7-.3,1.2-.7,1.7-1.2l.9,1.1c-.6.7-1.2,1.2-2.1,1.5-.8.3-1.7.5-2.7.5Z"/>
  </g>
  <path class="st0" d="M270.1,39.3c-1,1-2.1,1.8-3.5,2.3-1.4.6-2.8.8-4.4.8s-3.1-.3-4.4-.8c-1.3-.5-2.5-1.3-3.5-2.3s-1.8-2.2-2.3-3.5c-.5-1.4-.8-2.8-.8-4.4s.3-3.1.8-4.4c.5-1.4,1.3-2.5,2.3-3.5s2.2-1.8,3.5-2.3,2.8-.8,4.4-.8,3.1.3,4.4.8c1.4.6,2.5,1.3,3.5,2.3l-1.3,1.3c-.8-.9-1.8-1.6-2.9-2.1s-2.4-.7-3.7-.7-2.5.2-3.6.7c-1.1.5-2.1,1.1-2.9,2-.8.8-1.4,1.8-1.9,3-.5,1.1-.7,2.4-.7,3.7s.2,2.6.7,3.7c.5,1.1,1.1,2.1,1.9,3,.8.8,1.8,1.5,2.9,2,1.1.5,2.3.7,3.6.7s2.6-.2,3.7-.7,2.1-1.2,2.9-2.1l1.3,1.3Z"/>
  <g>
    <path class="st1" d="M98.9,66l2.4-12.1h1l3.7,9.5h-.5s7.3-9.5,7.3-9.5h1.1l-2.4,12.1h-1.2l2-10.2h.3s-6.7,8.7-6.7,8.7h-.6l-3.4-8.7h.3c0,0-2,10.3-2,10.3h-1.2Z"/>
    <path class="st1" d="M119.3,66.1c-.8,0-1.6-.2-2.2-.5-.6-.3-1.1-.8-1.4-1.3-.3-.6-.5-1.3-.5-2s.2-2,.7-2.8c.5-.8,1.1-1.5,1.9-1.9.8-.5,1.7-.7,2.7-.7s1.6.2,2.2.5c.6.3,1.1.8,1.4,1.3.3.6.5,1.3.5,2s-.2,2-.7,2.8c-.5.8-1.1,1.5-1.9,1.9-.8.5-1.7.7-2.7.7ZM119.4,65c.8,0,1.4-.2,2-.5.6-.4,1.1-.9,1.4-1.5s.5-1.4.5-2.2-.3-1.6-.8-2.1-1.3-.7-2.2-.7-1.4.2-2,.6c-.6.4-1.1.9-1.4,1.5-.3.6-.5,1.4-.5,2.2s.3,1.6.8,2.1c.5.5,1.3.7,2.2.7Z"/>
    <path class="st1" d="M126.1,66l1.8-9.1h1.2l-.5,2.7v-.5c.3-.8.8-1.4,1.5-1.7.7-.4,1.5-.6,2.5-.6l-.2,1.2c0,0-.1,0-.2,0,0,0-.1,0-.2,0-1,0-1.8.3-2.4.8s-1.1,1.4-1.3,2.5l-.9,4.6h-1.2Z"/>
    <path class="st1" d="M133.5,58l.2-1h5.6l-.2,1h-5.6ZM136.2,66.1c-.5,0-1-.1-1.3-.3-.4-.2-.6-.5-.8-1-.1-.4-.2-.9,0-1.5l1.7-8.4h1.2l-1.7,8.3c-.1.6,0,1,.1,1.3.2.3.6.5,1.1.5s.5,0,.7-.1c.2,0,.5-.2.7-.4l.3.9c-.3.2-.6.4-1,.5s-.7.1-1.1.1Z"/>
    <path class="st1" d="M143.3,69.5c-.8,0-1.6-.1-2.3-.4s-1.3-.6-1.7-1l.7-.9c.4.4.9.7,1.4.9.6.2,1.2.3,2,.3,1.2,0,2-.3,2.7-.8.6-.5,1.1-1.4,1.3-2.5l.5-2.4.5-1.5.2-1.6.5-2.8h1.2l-1.6,8c-.3,1.6-.9,2.8-1.8,3.5-.9.7-2,1.1-3.5,1.1ZM144,65.7c-.8,0-1.5-.2-2.1-.5s-1.1-.7-1.4-1.3c-.3-.5-.5-1.2-.5-1.9s.1-1.4.4-2,.6-1.2,1.1-1.6c.5-.5,1-.8,1.6-1.1.6-.3,1.3-.4,2.1-.4s1.4.1,1.9.4c.6.3,1,.6,1.3,1.1.3.5.5,1.2.5,1.9,0,1-.2,1.9-.6,2.7-.4.8-1,1.5-1.7,1.9-.7.5-1.6.7-2.7.7ZM144.2,64.6c.8,0,1.4-.2,2-.5.6-.3,1.1-.8,1.4-1.4s.5-1.3.5-2.1-.3-1.5-.8-1.9c-.5-.5-1.3-.7-2.2-.7s-1.4.2-2,.5-1.1.8-1.4,1.4c-.3.6-.5,1.3-.5,2.1s.3,1.5.8,1.9c.5.5,1.3.7,2.2.7Z"/>
    <path class="st1" d="M155.7,66.1c-.8,0-1.5-.2-2.1-.5s-1.1-.8-1.4-1.3c-.3-.6-.5-1.3-.5-2.1s.1-1.5.4-2.1.6-1.2,1.1-1.7c.5-.5,1-.9,1.6-1.1.6-.3,1.3-.4,2.1-.4s1.5.1,2,.4,1,.7,1.3,1.2.5,1.2.5,1.9c0,1.1-.2,2.1-.6,2.9-.4.9-1,1.5-1.7,2-.7.5-1.6.7-2.6.7ZM156,65c.8,0,1.4-.2,2-.5.6-.4,1.1-.9,1.4-1.5s.5-1.4.5-2.2-.3-1.6-.8-2.1-1.3-.7-2.2-.7-1.4.2-2,.6c-.6.4-1.1.9-1.4,1.5-.3.6-.5,1.4-.5,2.2s.3,1.6.8,2.1c.5.5,1.3.7,2.2.7ZM159,66l.5-2.6.5-1.8.2-1.9.6-2.7h1.2l-1.8,9.1h-1.2Z"/>
    <path class="st1" d="M166.9,69.5c-.8,0-1.6-.1-2.3-.4s-1.3-.6-1.7-1l.7-.9c.4.4.9.7,1.4.9.6.2,1.2.3,2,.3,1.2,0,2-.3,2.7-.8.6-.5,1.1-1.4,1.3-2.5l.5-2.4.5-1.5.2-1.6.5-2.8h1.2l-1.6,8c-.3,1.6-.9,2.8-1.8,3.5-.9.7-2,1.1-3.5,1.1ZM167.6,65.7c-.8,0-1.5-.2-2.1-.5s-1.1-.7-1.4-1.3c-.3-.5-.5-1.2-.5-1.9s.1-1.4.4-2,.6-1.2,1.1-1.6c.5-.5,1-.8,1.6-1.1.6-.3,1.3-.4,2.1-.4s1.4.1,1.9.4c.6.3,1,.6,1.3,1.1.3.5.5,1.2.5,1.9,0,1-.2,1.9-.6,2.7-.4.8-1,1.5-1.7,1.9-.7.5-1.6.7-2.7.7ZM167.8,64.6c.8,0,1.4-.2,2-.5.6-.3,1.1-.8,1.4-1.4s.5-1.3.5-2.1-.3-1.5-.8-1.9c-.5-.5-1.3-.7-2.2-.7s-1.4.2-2,.5-1.1.8-1.4,1.4c-.3.6-.5,1.3-.5,2.1s.3,1.5.8,1.9c.5.5,1.3.7,2.2.7Z"/>
    <path class="st1" d="M179.6,66.1c-.9,0-1.6-.2-2.3-.5-.6-.3-1.1-.8-1.5-1.3-.3-.6-.5-1.3-.5-2.1s.2-2,.7-2.8c.4-.8,1-1.4,1.8-1.9.8-.5,1.6-.7,2.6-.7s1.5.2,2.1.5c.6.3,1,.7,1.4,1.3.3.6.5,1.3.5,2.1s0,.4,0,.6c0,.2,0,.4,0,.5h-8l.2-.9h7.3l-.5.3c.1-.7,0-1.3-.2-1.8s-.6-.9-1-1.1-1-.4-1.6-.4-1.4.2-2,.5c-.6.4-1,.9-1.4,1.5-.3.6-.5,1.4-.5,2.2s.3,1.6.8,2.1c.5.5,1.3.7,2.4.7s1.2-.1,1.7-.3c.5-.2.9-.5,1.3-.8l.6.9c-.4.4-1,.8-1.6,1-.6.2-1.3.4-2,.4Z"/>
    <path class="st1" d="M190.6,58l.2-1h5.6l-.2,1h-5.6ZM190.7,66l2-10.3c.2-.9.5-1.5,1-2s1.2-.7,2.1-.7.7,0,1,.2c.3.1.6.2.8.4l-.6.9c-.3-.3-.8-.5-1.3-.5s-1,.1-1.3.4c-.3.3-.5.7-.7,1.4l-.3,1.3v.5c0,0-1.7,8.2-1.7,8.2h-1.2Z"/>
    <path class="st1" d="M200.2,66.1c-.8,0-1.6-.2-2.2-.5-.6-.3-1.1-.8-1.4-1.3-.3-.6-.5-1.3-.5-2s.2-2,.7-2.8c.5-.8,1.1-1.5,1.9-1.9.8-.5,1.7-.7,2.7-.7s1.6.2,2.2.5c.6.3,1.1.8,1.4,1.3.3.6.5,1.3.5,2s-.2,2-.7,2.8c-.5.8-1.1,1.5-1.9,1.9-.8.5-1.7.7-2.7.7ZM200.3,65c.8,0,1.4-.2,2-.5.6-.4,1.1-.9,1.4-1.5s.5-1.4.5-2.2-.3-1.6-.8-2.1-1.3-.7-2.2-.7-1.4.2-2,.6c-.6.4-1.1.9-1.4,1.5-.3.6-.5,1.4-.5,2.2s.3,1.6.8,2.1c.5.5,1.3.7,2.2.7Z"/>
    <path class="st1" d="M207,66l1.8-9.1h1.2l-.5,2.7v-.5c.3-.8.8-1.4,1.5-1.7.7-.4,1.5-.6,2.5-.6l-.2,1.2c0,0-.1,0-.2,0,0,0-.1,0-.2,0-1,0-1.8.3-2.4.8s-1.1,1.4-1.3,2.5l-.9,4.6h-1.2Z"/>
    <path class="st1" d="M218.8,66l2.4-12.1h1.3l-2.4,12.1h-1.3Z"/>
    <path class="st1" d="M230,56.9c.8,0,1.5.2,2,.5s.9.8,1.1,1.4c.2.6.2,1.3,0,2.1l-1,5.2h-1.2l1-5.2c.2-.9,0-1.6-.3-2.1s-1-.8-2-.8-1.8.3-2.4.8c-.6.5-1.1,1.3-1.3,2.4l-1,4.9h-1.2l1.8-9.1h1.2l-.5,2.6-.3-.5c.4-.8,1-1.4,1.7-1.7.7-.4,1.5-.5,2.3-.5Z"/>
    <path class="st1" d="M235.6,58l.2-1h5.6l-.2,1h-5.6ZM238.3,66.1c-.5,0-1-.1-1.3-.3-.4-.2-.6-.5-.8-1-.1-.4-.2-.9,0-1.5l1.7-8.4h1.2l-1.7,8.3c-.1.6,0,1,.1,1.3.2.3.6.5,1.1.5s.5,0,.7-.1c.2,0,.5-.2.7-.4l.3.9c-.3.2-.6.4-1,.5s-.7.1-1.1.1Z"/>
    <path class="st1" d="M246.3,66.1c-.9,0-1.6-.2-2.3-.5-.6-.3-1.1-.8-1.5-1.3-.3-.6-.5-1.3-.5-2.1s.2-2,.7-2.8c.4-.8,1-1.4,1.8-1.9.8-.5,1.6-.7,2.6-.7s1.5.2,2.1.5c.6.3,1,.7,1.4,1.3.3.6.5,1.3.5,2.1s0,.4,0,.6c0,.2,0,.4,0,.5h-8l.2-.9h7.3l-.5.3c.1-.7,0-1.3-.2-1.8s-.6-.9-1-1.1-1-.4-1.6-.4-1.4.2-2,.5c-.6.4-1,.9-1.4,1.5-.3.6-.5,1.4-.5,2.2s.3,1.6.8,2.1c.5.5,1.3.7,2.4.7s1.2-.1,1.7-.3c.5-.2.9-.5,1.3-.8l.6.9c-.4.4-1,.8-1.6,1-.6.2-1.3.4-2,.4Z"/>
    <path class="st1" d="M252.6,66l1.8-9.1h1.2l-.5,2.7v-.5c.3-.8.8-1.4,1.5-1.7.7-.4,1.5-.6,2.5-.6l-.2,1.2c0,0-.1,0-.2,0,0,0-.1,0-.2,0-1,0-1.8.3-2.4.8s-1.1,1.4-1.3,2.5l-.9,4.6h-1.2Z"/>
    <path class="st1" d="M265.6,56.9c.8,0,1.5.2,2,.5s.9.8,1.1,1.4c.2.6.2,1.3,0,2.1l-1,5.2h-1.2l1-5.2c.2-.9,0-1.6-.3-2.1s-1-.8-2-.8-1.8.3-2.4.8c-.6.5-1.1,1.3-1.3,2.4l-1,4.9h-1.2l1.8-9.1h1.2l-.5,2.6-.3-.5c.4-.8,1-1.4,1.7-1.7.7-.4,1.5-.5,2.3-.5Z"/>
    <path class="st1" d="M275,66.1c-.8,0-1.5-.2-2.1-.5s-1.1-.8-1.4-1.3c-.3-.6-.5-1.3-.5-2.1s.1-1.5.4-2.1.6-1.2,1.1-1.7c.5-.5,1-.9,1.6-1.1.6-.3,1.3-.4,2.1-.4s1.5.1,2,.4,1,.7,1.3,1.2.5,1.2.5,1.9c0,1.1-.2,2.1-.6,2.9-.4.9-1,1.5-1.7,2-.7.5-1.6.7-2.6.7ZM275.2,65c.8,0,1.4-.2,2-.5.6-.4,1.1-.9,1.4-1.5s.5-1.4.5-2.2-.3-1.6-.8-2.1-1.3-.7-2.2-.7-1.4.2-2,.6c-.6.4-1.1.9-1.4,1.5-.3.6-.5,1.4-.5,2.2s.3,1.6.8,2.1c.5.5,1.3.7,2.2.7ZM278.2,66l.5-2.6.5-1.8.2-1.9.6-2.7h1.2l-1.8,9.1h-1.2Z"/>
    <path class="st1" d="M283,58l.2-1h5.6l-.2,1h-5.6ZM285.7,66.1c-.5,0-1-.1-1.3-.3-.4-.2-.6-.5-.8-1-.1-.4-.2-.9,0-1.5l1.7-8.4h1.2l-1.7,8.3c-.1.6,0,1,.1,1.3.2.3.6.5,1.1.5s.5,0,.7-.1c.2,0,.5-.2.7-.4l.3.9c-.3.2-.6.4-1,.5s-.7.1-1.1.1Z"/>
    <path class="st1" d="M289.8,66l1.8-9.1h1.2l-1.8,9.1h-1.2ZM292.8,54.9c-.2,0-.4,0-.6-.2-.2-.2-.2-.4-.2-.6s0-.5.3-.7c.2-.2.4-.3.7-.3s.4,0,.6.2c.2.2.2.3.2.6s0,.5-.3.7c-.2.2-.4.3-.7.3Z"/>
    <path class="st1" d="M298.6,66.1c-.8,0-1.6-.2-2.2-.5-.6-.3-1.1-.8-1.4-1.3-.3-.6-.5-1.3-.5-2s.2-2,.7-2.8c.5-.8,1.1-1.5,1.9-1.9.8-.5,1.7-.7,2.7-.7s1.6.2,2.2.5c.6.3,1.1.8,1.4,1.3.3.6.5,1.3.5,2s-.2,2-.7,2.8c-.5.8-1.1,1.5-1.9,1.9-.8.5-1.7.7-2.7.7ZM298.6,65c.8,0,1.4-.2,2-.5.6-.4,1.1-.9,1.4-1.5s.5-1.4.5-2.2-.3-1.6-.8-2.1-1.3-.7-2.2-.7-1.4.2-2,.6c-.6.4-1.1.9-1.4,1.5-.3.6-.5,1.4-.5,2.2s.3,1.6.8,2.1c.5.5,1.3.7,2.2.7Z"/>
    <path class="st1" d="M311.6,56.9c.8,0,1.5.2,2,.5s.9.8,1.1,1.4c.2.6.2,1.3,0,2.1l-1,5.2h-1.2l1-5.2c.2-.9,0-1.6-.3-2.1s-1-.8-2-.8-1.8.3-2.4.8c-.6.5-1.1,1.3-1.3,2.4l-1,4.9h-1.2l1.8-9.1h1.2l-.5,2.6-.3-.5c.4-.8,1-1.4,1.7-1.7.7-.4,1.5-.5,2.3-.5Z"/>
    <path class="st1" d="M320.9,66.1c-.8,0-1.5-.2-2.1-.5s-1.1-.8-1.4-1.3c-.3-.6-.5-1.3-.5-2.1s.1-1.5.4-2.1.6-1.2,1.1-1.7c.5-.5,1-.9,1.6-1.1.6-.3,1.3-.4,2.1-.4s1.5.1,2,.4,1,.7,1.3,1.2.5,1.2.5,1.9c0,1.1-.2,2.1-.6,2.9-.4.9-1,1.5-1.7,2-.7.5-1.6.7-2.6.7ZM321.2,65c.8,0,1.4-.2,2-.5.6-.4,1.1-.9,1.4-1.5s.5-1.4.5-2.2-.3-1.6-.8-2.1-1.3-.7-2.2-.7-1.4.2-2,.6c-.6.4-1.1.9-1.4,1.5-.3.6-.5,1.4-.5,2.2s.3,1.6.8,2.1c.5.5,1.3.7,2.2.7ZM324.2,66l.5-2.6.5-1.8.2-1.9.6-2.7h1.2l-1.8,9.1h-1.2Z"/>
    <path class="st1" d="M328.8,66l2.6-12.8h1.2l-2.6,12.8h-1.2Z"/>
    <path class="st1" d="M338.3,66l2.4-12.1h5.2c1.2,0,2.1.2,2.7.7.7.4,1,1.1,1,1.9s-.2,1.4-.6,2c-.4.5-.9.9-1.5,1.2-.6.3-1.3.4-2,.4l.4-.4c1,0,1.7.2,2.3.7s.9,1.1.9,2-.2,1.5-.6,2.1-1,1-1.8,1.3c-.8.3-1.7.4-2.8.4h-5.6ZM339.7,65h4.3c1.2,0,2.2-.2,2.8-.7.7-.5,1-1.1,1-2s-.2-1.2-.7-1.5c-.5-.3-1.2-.4-2.1-.4h-4.6l.2-1.1h4.1c.7,0,1.3,0,1.8-.3s1-.5,1.3-.9.5-.9.5-1.5-.2-1-.7-1.3-1.1-.4-2-.4h-3.9l-2,10Z"/>
    <path class="st1" d="M354.9,66.1c-.8,0-1.5-.2-2-.5-.5-.3-.9-.8-1.1-1.4s-.2-1.3,0-2.1l1-5.2h1.2l-1,5.2c-.2.9,0,1.6.3,2.1.4.5,1,.8,1.9.8s1.8-.3,2.4-.8c.6-.5,1.1-1.3,1.3-2.4l1-4.9h1.2l-1.8,9.1h-1.2l.5-2.6.3.4c-.4.8-1,1.4-1.7,1.7-.7.4-1.5.5-2.3.5Z"/>
    <path class="st1" d="M362.2,69.5c-.4,0-.8,0-1.2-.2-.4-.1-.7-.3-.9-.6l.7-.9c.2.2.4.4.7.5.3.1.6.2.9.2s.8-.1,1.1-.3.7-.6,1-1.2l.9-1.4.2-.2,5.4-8.4h1.3l-6.7,10.3c-.4.6-.7,1-1.1,1.4s-.7.6-1,.7c-.4.1-.7.2-1.2.2ZM365.1,66.3l-2.3-9.4h1.2l2,8.3-1,1Z"/>
    <path class="st1" d="M376,66.1c-.9,0-1.6-.2-2.3-.5-.6-.3-1.1-.8-1.5-1.3-.3-.6-.5-1.3-.5-2.1s.2-2,.7-2.8c.4-.8,1-1.4,1.8-1.9.8-.5,1.6-.7,2.6-.7s1.5.2,2.1.5c.6.3,1,.7,1.4,1.3.3.6.5,1.3.5,2.1s0,.4,0,.6c0,.2,0,.4,0,.5h-8l.2-.9h7.3l-.5.3c.1-.7,0-1.3-.2-1.8s-.6-.9-1-1.1-1-.4-1.6-.4-1.4.2-2,.5c-.6.4-1,.9-1.4,1.5-.3.6-.5,1.4-.5,2.2s.3,1.6.8,2.1c.5.5,1.3.7,2.4.7s1.2-.1,1.7-.3c.5-.2.9-.5,1.3-.8l.6.9c-.4.4-1,.8-1.6,1-.6.2-1.3.4-2,.4Z"/>
    <path class="st1" d="M382.3,66l1.8-9.1h1.2l-.5,2.7v-.5c.3-.8.8-1.4,1.5-1.7.7-.4,1.5-.6,2.5-.6l-.2,1.2c0,0-.1,0-.2,0,0,0-.1,0-.2,0-1,0-1.8.3-2.4.8s-1.1,1.4-1.3,2.5l-.9,4.6h-1.2Z"/>
    <path class="st1" d="M391.8,66.1c-.7,0-1.4-.1-2.1-.3s-1.2-.5-1.5-.8l.6-1c.3.3.8.6,1.4.7s1.2.3,1.8.3,1.5-.1,2-.4c.5-.3.7-.7.7-1.2s-.1-.6-.4-.8c-.2-.2-.6-.3-1-.4-.4,0-.8-.2-1.2-.3-.4,0-.9-.2-1.2-.4-.4-.1-.7-.4-1-.7-.2-.3-.4-.7-.4-1.2s.2-1.1.5-1.5c.3-.4.8-.8,1.4-1s1.3-.3,2.1-.3,1.1,0,1.7.2,1,.4,1.4.6l-.5,1c-.4-.3-.8-.5-1.2-.6-.5-.1-.9-.2-1.4-.2-.8,0-1.5.2-1.9.5-.5.3-.7.7-.7,1.2s.1.6.4.8c.2.2.6.3,1,.4.4.1.8.2,1.3.3.4,0,.9.2,1.2.4.4.2.7.4,1,.6.2.3.4.7.4,1.2s-.2,1.1-.5,1.5c-.3.4-.8.7-1.4,1s-1.3.3-2.1.3Z"/>
  </g>
  <line class="st2" x1="236.3" y1="19.4" x2="236.3" y2="47.2"/>
  <metadata>
    <sfw xmlns="http://ns.adobe.com/SaveForWeb/1.0/">
      <slices/>
      <sliceSourceBounds x="3.47" y="3.55" width="393.06" height="76.9" bottomLeftOrigin="true"/>
    </sfw>
  </metadata>
</svg>